<?xml version="1.0" encoding="UTF-8"?><svg xmlns="http://www.w3.org/2000/svg" xmlns:xlink="http://www.w3.org/1999/xlink" contentScriptType="text/ecmascript" width="375" zoomAndPan="magnify" contentStyleType="text/css" viewBox="0 0 375 374.999991" height="374.999991" preserveAspectRatio="xMidYMid meet" version="1.0"><defs><clipPath id="clip-0"><path d="M 11.921875 13.019531 L 362.921875 13.019531 L 362.921875 361.769531 L 11.921875 361.769531 Z M 11.921875 13.019531 " clip-rule="nonzero"/></clipPath></defs><g clip-path="url(#clip-0)"><path fill="rgb(100%, 100%, 100%)" d="M 362.882812 188.457031 C 362.882812 91.566406 284.328125 13.019531 187.421875 13.019531 C 90.519531 13.019531 11.960938 91.566406 11.960938 188.457031 C 11.960938 276.023438 76.125 348.601562 160.007812 361.765625 L 160.007812 239.171875 L 115.457031 239.171875 L 115.457031 188.457031 L 160.007812 188.457031 L 160.007812 149.804688 C 160.007812 105.835938 186.203125 81.550781 226.28125 81.550781 C 245.476562 81.550781 265.558594 84.976562 265.558594 84.976562 L 265.558594 128.152344 L 243.433594 128.152344 C 221.636719 128.152344 214.839844 141.675781 214.839844 155.546875 L 214.839844 188.457031 L 263.503906 188.457031 L 255.722656 239.171875 L 214.839844 239.171875 L 214.839844 361.765625 C 298.722656 348.601562 362.882812 276.023438 362.882812 188.457031 " fill-opacity="1" fill-rule="nonzero"/></g></svg>