<?xml version="1.0" encoding="UTF-8"?><svg xmlns="http://www.w3.org/2000/svg" xmlns:xlink="http://www.w3.org/1999/xlink" contentScriptType="text/ecmascript" width="375" zoomAndPan="magnify" contentStyleType="text/css" viewBox="0 0 375 374.999991" height="374.999991" preserveAspectRatio="xMidYMid meet" version="1.0"><defs><clipPath id="clip-0"><path d="M 11.921875 15 L 362.921875 15 L 362.921875 358 L 11.921875 358 Z M 11.921875 15 " clip-rule="nonzero"/></clipPath></defs><g clip-path="url(#clip-0)"><path fill="rgb(100%, 100%, 100%)" d="M 187.410156 15.578125 C 90.503906 15.578125 11.921875 94.160156 11.921875 191.09375 C 11.921875 268.621094 62.203125 334.40625 131.949219 357.613281 C 140.726562 359.222656 143.929688 353.8125 143.929688 349.160156 C 143.929688 344.992188 143.78125 333.953125 143.695312 319.3125 C 94.875 329.914062 84.582031 295.78125 84.582031 295.78125 C 76.59375 275.507812 65.101562 270.113281 65.101562 270.113281 C 49.160156 259.21875 66.300781 259.453125 66.300781 259.453125 C 83.90625 260.695312 93.179688 277.542969 93.179688 277.542969 C 108.828125 304.363281 134.261719 296.613281 144.25 292.125 C 145.84375 280.789062 150.378906 273.050781 155.394531 268.664062 C 116.417969 264.234375 75.453125 249.183594 75.453125 181.925781 C 75.453125 162.765625 82.296875 147.101562 93.515625 134.832031 C 91.71875 130.386719 85.691406 112.542969 95.242188 88.382812 C 95.242188 88.382812 109.984375 83.660156 143.503906 106.371094 C 157.5 102.480469 172.519531 100.535156 187.4375 100.464844 C 202.339844 100.535156 217.359375 102.480469 231.371094 106.371094 C 264.878906 83.660156 279.589844 88.382812 279.589844 88.382812 C 289.167969 112.542969 283.144531 130.386719 281.332031 134.832031 C 292.578125 147.101562 299.363281 162.765625 299.363281 181.925781 C 299.363281 249.34375 258.324219 264.175781 219.234375 268.519531 C 225.535156 273.929688 231.152344 284.648438 231.152344 301.015625 C 231.152344 324.472656 230.933594 343.398438 230.933594 349.160156 C 230.933594 353.855469 234.089844 359.3125 243 357.601562 C 312.6875 334.332031 362.921875 268.605469 362.921875 191.09375 C 362.921875 94.160156 284.34375 15.578125 187.410156 15.578125 Z M 187.410156 15.578125 " fill-opacity="1" fill-rule="evenodd"/></g></svg>