<?xml version="1.0" encoding="UTF-8"?><svg xmlns="http://www.w3.org/2000/svg" xmlns:xlink="http://www.w3.org/1999/xlink" contentScriptType="text/ecmascript" width="375" zoomAndPan="magnify" contentStyleType="text/css" viewBox="0 0 375 374.999991" height="374.999991" preserveAspectRatio="xMidYMid meet" version="1.0"><defs><clipPath id="clip-0"><path d="M 13.253906 13.253906 L 362.003906 13.253906 L 362.003906 362 L 13.253906 362 Z M 13.253906 13.253906 " clip-rule="nonzero"/></clipPath></defs><g clip-path="url(#clip-0)"><path fill="rgb(100%, 100%, 100%)" d="M 187.554688 44.699219 C 234.089844 44.699219 239.589844 44.851562 258.007812 45.691406 C 274.96875 46.457031 284.214844 49.285156 290.40625 51.730469 C 298.503906 54.863281 304.3125 58.683594 310.425781 64.796875 C 316.539062 70.910156 320.28125 76.714844 323.492188 84.816406 C 325.859375 90.929688 328.6875 100.175781 329.527344 117.214844 C 330.371094 135.628906 330.523438 141.132812 330.523438 187.667969 C 330.523438 234.203125 330.371094 239.707031 329.527344 258.121094 C 328.765625 275.085938 325.9375 284.332031 323.492188 290.519531 C 320.359375 298.621094 316.539062 304.425781 310.425781 310.539062 C 304.3125 316.652344 298.503906 320.398438 290.40625 323.605469 C 284.292969 325.976562 275.046875 328.804688 258.007812 329.644531 C 239.589844 330.484375 234.089844 330.636719 187.554688 330.636719 C 141.015625 330.636719 135.515625 330.484375 117.101562 329.644531 C 100.136719 328.878906 90.890625 326.050781 84.699219 323.605469 C 76.601562 320.472656 70.792969 316.652344 64.679688 310.539062 C 58.566406 304.425781 54.824219 298.621094 51.613281 290.519531 C 49.246094 284.40625 46.417969 275.160156 45.578125 258.121094 C 44.738281 239.707031 44.582031 234.203125 44.582031 187.667969 C 44.582031 141.132812 44.738281 135.628906 45.578125 117.214844 C 46.339844 100.25 49.167969 91.003906 51.613281 84.816406 C 54.746094 76.714844 58.566406 70.910156 64.679688 64.796875 C 70.792969 58.683594 76.601562 54.9375 84.699219 51.730469 C 90.8125 49.359375 100.058594 46.53125 117.101562 45.691406 C 135.515625 44.851562 141.015625 44.699219 187.554688 44.699219 M 187.554688 13.292969 C 140.175781 13.292969 134.292969 13.523438 115.648438 14.363281 C 97.078125 15.203125 84.394531 18.183594 73.316406 22.460938 C 61.851562 26.894531 52.148438 32.855469 42.445312 42.558594 C 32.816406 52.261719 26.855469 61.96875 22.425781 73.429688 C 18.144531 84.511719 15.164062 97.195312 14.324219 115.761719 C 13.484375 134.332031 13.253906 140.292969 13.253906 187.589844 C 13.253906 234.96875 13.484375 240.851562 14.324219 259.496094 C 15.164062 278.066406 18.144531 290.75 22.425781 301.828125 C 26.855469 313.292969 32.816406 322.996094 42.519531 332.699219 C 52.226562 342.40625 61.929688 348.363281 73.390625 352.796875 C 84.472656 357.074219 97.15625 360.054688 115.726562 360.898438 C 134.292969 361.738281 140.253906 361.964844 187.628906 361.964844 C 235.003906 361.964844 240.890625 361.738281 259.535156 360.898438 C 278.101562 360.054688 290.789062 357.074219 301.867188 352.796875 C 313.328125 348.363281 323.035156 342.40625 332.738281 332.699219 C 342.441406 322.996094 348.402344 313.292969 352.835938 301.828125 C 357.113281 290.75 360.09375 278.066406 360.933594 259.496094 C 361.773438 240.929688 362.003906 234.96875 362.003906 187.589844 C 362.003906 140.214844 361.773438 134.332031 360.933594 115.6875 C 360.09375 97.117188 357.113281 84.433594 352.835938 73.351562 C 348.402344 61.890625 342.441406 52.1875 332.738281 42.484375 C 323.035156 32.777344 313.328125 26.816406 301.867188 22.386719 C 290.789062 18.105469 278.101562 15.125 259.535156 14.285156 C 240.890625 13.523438 234.929688 13.292969 187.554688 13.292969 " fill-opacity="1" fill-rule="nonzero"/></g><path fill="rgb(100%, 100%, 100%)" d="M 187.554688 98.113281 C 138.113281 98.113281 98.074219 138.152344 98.074219 187.589844 C 98.074219 237.03125 138.191406 277.148438 187.628906 277.148438 C 237.070312 277.148438 277.1875 237.105469 277.1875 187.589844 C 277.109375 138.152344 236.992188 98.113281 187.554688 98.113281 M 187.554688 245.742188 C 155.460938 245.742188 129.480469 219.761719 129.480469 187.667969 C 129.480469 155.574219 155.460938 129.59375 187.554688 129.59375 C 219.648438 129.59375 245.628906 155.574219 245.628906 187.667969 C 245.703125 219.683594 219.648438 245.742188 187.554688 245.742188 " fill-opacity="1" fill-rule="nonzero"/><path fill="rgb(100%, 100%, 100%)" d="M 301.5625 94.597656 C 301.5625 106.136719 292.164062 115.535156 280.625 115.535156 C 269.085938 115.535156 259.6875 106.136719 259.6875 94.597656 C 259.6875 83.058594 269.085938 73.660156 280.625 73.660156 C 292.164062 73.660156 301.5625 82.980469 301.5625 94.597656 " fill-opacity="1" fill-rule="nonzero"/></svg>