<?xml version="1.0" encoding="UTF-8"?><svg xmlns="http://www.w3.org/2000/svg" xmlns:xlink="http://www.w3.org/1999/xlink" contentScriptType="text/ecmascript" width="375" zoomAndPan="magnify" contentStyleType="text/css" viewBox="0 0 375 374.999991" height="374.999991" preserveAspectRatio="xMidYMid meet" version="1.0"><defs><clipPath id="clip-0"><path d="M 11.921875 12 L 362.921875 12 L 362.921875 362.921875 L 11.921875 362.921875 Z M 11.921875 12 " clip-rule="nonzero"/></clipPath></defs><g clip-path="url(#clip-0)"><path fill="rgb(100%, 100%, 100%)" d="M 274.6875 12.0625 L 99.882812 12.0625 C 51.449219 12.0625 11.921875 51.589844 11.921875 100.019531 L 11.921875 275.105469 C 11.921875 323.257812 51.449219 362.785156 99.882812 362.785156 L 274.964844 362.785156 C 323.398438 362.785156 362.921875 323.257812 362.921875 274.824219 L 362.921875 100.019531 C 362.644531 51.589844 323.121094 12.0625 274.6875 12.0625 Z M 128.832031 295.980469 L 78.726562 295.980469 L 78.726562 151.238281 L 128.832031 151.238281 Z M 103.5 128.96875 C 89.304688 128.96875 77.890625 117.558594 77.890625 103.363281 C 77.890625 89.164062 89.304688 77.753906 103.5 77.753906 C 117.695312 77.753906 129.109375 89.164062 129.109375 103.363281 C 128.832031 117.558594 117.417969 128.96875 103.5 128.96875 Z M 295.839844 295.980469 L 254.089844 295.980469 L 254.089844 225.835938 C 254.089844 208.855469 251.863281 187.144531 228.757812 187.144531 C 205.097656 187.144531 201.203125 205.515625 201.203125 224.722656 L 201.203125 295.980469 L 159.449219 295.980469 L 159.449219 151.238281 L 198.417969 151.238281 L 198.417969 170.722656 L 199.53125 170.722656 C 205.65625 159.589844 219.851562 150.960938 242.121094 150.960938 C 288.046875 150.960938 296.121094 177.402344 296.121094 216.648438 L 296.121094 295.980469 Z M 295.839844 295.980469 " fill-opacity="1" fill-rule="nonzero"/></g></svg>