<?xml version="1.0" encoding="UTF-8"?><svg xmlns="http://www.w3.org/2000/svg" xmlns:xlink="http://www.w3.org/1999/xlink" contentScriptType="text/ecmascript" width="375" zoomAndPan="magnify" contentStyleType="text/css" viewBox="0 0 375 374.999991" height="374.999991" preserveAspectRatio="xMidYMid meet" version="1.0"><defs><clipPath id="clip-0"><path d="M 13.253906 249 L 362.003906 249 L 362.003906 346 L 13.253906 346 Z M 13.253906 249 " clip-rule="nonzero"/></clipPath></defs><g clip-path="url(#clip-0)"><path fill="rgb(100%, 100%, 100%)" d="M 303.878906 345.925781 L 71.378906 345.925781 C 69.476562 345.925781 67.578125 345.832031 65.683594 345.640625 C 63.789062 345.453125 61.910156 345.171875 60.042969 344.800781 C 58.175781 344.429688 56.335938 343.964844 54.511719 343.410156 C 52.691406 342.859375 50.902344 342.21875 49.144531 341.488281 C 47.386719 340.757812 45.667969 339.945312 43.992188 339.046875 C 42.3125 338.152344 40.683594 337.171875 39.101562 336.117188 C 37.519531 335.058594 35.992188 333.925781 34.519531 332.71875 C 33.050781 331.511719 31.640625 330.234375 30.296875 328.890625 C 28.949219 327.542969 27.671875 326.136719 26.464844 324.667969 C 25.257812 323.195312 24.125 321.667969 23.066406 320.085938 C 22.011719 318.507812 21.03125 316.875 20.136719 315.199219 C 19.238281 313.519531 18.421875 311.804688 17.695312 310.046875 C 16.964844 308.289062 16.324219 306.5 15.769531 304.679688 C 15.214844 302.859375 14.753906 301.015625 14.382812 299.148438 C 14.007812 297.285156 13.726562 295.40625 13.539062 293.511719 C 13.351562 291.617188 13.257812 289.71875 13.253906 287.816406 L 13.253906 268.449219 C 13.253906 267.8125 13.285156 267.179688 13.347656 266.546875 C 13.410156 265.917969 13.503906 265.289062 13.625 264.667969 C 13.75 264.046875 13.90625 263.429688 14.089844 262.824219 C 14.273438 262.21875 14.488281 261.621094 14.730469 261.035156 C 14.972656 260.449219 15.242188 259.875 15.542969 259.316406 C 15.839844 258.757812 16.167969 258.214844 16.519531 257.6875 C 16.871094 257.160156 17.25 256.648438 17.652344 256.160156 C 18.054688 255.667969 18.480469 255.199219 18.929688 254.75 C 19.378906 254.300781 19.847656 253.875 20.339844 253.472656 C 20.828125 253.070312 21.335938 252.695312 21.867188 252.339844 C 22.394531 251.988281 22.9375 251.664062 23.496094 251.363281 C 24.054688 251.066406 24.628906 250.792969 25.214844 250.550781 C 25.800781 250.308594 26.398438 250.09375 27.003906 249.910156 C 27.613281 249.726562 28.226562 249.574219 28.847656 249.449219 C 29.472656 249.324219 30.097656 249.234375 30.730469 249.171875 C 31.363281 249.109375 31.996094 249.078125 32.628906 249.078125 C 33.265625 249.078125 33.898438 249.109375 34.527344 249.171875 C 35.160156 249.234375 35.785156 249.324219 36.410156 249.449219 C 37.03125 249.574219 37.648438 249.726562 38.253906 249.910156 C 38.859375 250.09375 39.457031 250.308594 40.042969 250.550781 C 40.628906 250.792969 41.203125 251.066406 41.761719 251.363281 C 42.324219 251.664062 42.867188 251.988281 43.394531 252.339844 C 43.921875 252.695312 44.429688 253.070312 44.921875 253.472656 C 45.410156 253.875 45.882812 254.300781 46.328125 254.75 C 46.777344 255.199219 47.203125 255.667969 47.605469 256.160156 C 48.007812 256.648438 48.386719 257.160156 48.738281 257.6875 C 49.089844 258.214844 49.417969 258.757812 49.714844 259.316406 C 50.015625 259.875 50.285156 260.449219 50.53125 261.035156 C 50.773438 261.621094 50.984375 262.21875 51.171875 262.824219 C 51.355469 263.429688 51.507812 264.046875 51.632812 264.667969 C 51.757812 265.289062 51.847656 265.917969 51.910156 266.546875 C 51.972656 267.179688 52.003906 267.8125 52.003906 268.449219 L 52.003906 287.816406 C 52.003906 288.453125 52.035156 289.085938 52.097656 289.714844 C 52.160156 290.347656 52.253906 290.972656 52.375 291.597656 C 52.5 292.21875 52.65625 292.832031 52.839844 293.441406 C 53.023438 294.046875 53.238281 294.644531 53.480469 295.230469 C 53.722656 295.816406 53.992188 296.390625 54.292969 296.949219 C 54.589844 297.507812 54.917969 298.050781 55.269531 298.578125 C 55.621094 299.105469 56 299.613281 56.402344 300.105469 C 56.804688 300.597656 57.230469 301.066406 57.679688 301.515625 C 58.128906 301.960938 58.597656 302.386719 59.089844 302.789062 C 59.578125 303.191406 60.085938 303.570312 60.617188 303.921875 C 61.144531 304.273438 61.6875 304.601562 62.246094 304.898438 C 62.804688 305.199219 63.378906 305.46875 63.964844 305.710938 C 64.550781 305.957031 65.148438 306.167969 65.753906 306.351562 C 66.363281 306.539062 66.976562 306.691406 67.597656 306.816406 C 68.222656 306.9375 68.847656 307.03125 69.480469 307.09375 C 70.113281 307.15625 70.746094 307.1875 71.378906 307.1875 L 303.878906 307.1875 C 304.515625 307.1875 305.148438 307.15625 305.777344 307.09375 C 306.410156 307.03125 307.035156 306.9375 307.660156 306.816406 C 308.28125 306.691406 308.894531 306.539062 309.503906 306.351562 C 310.109375 306.167969 310.707031 305.957031 311.292969 305.710938 C 311.878906 305.46875 312.453125 305.199219 313.011719 304.898438 C 313.574219 304.601562 314.117188 304.273438 314.644531 303.921875 C 315.171875 303.570312 315.679688 303.191406 316.171875 302.789062 C 316.660156 302.386719 317.132812 301.960938 317.578125 301.515625 C 318.027344 301.066406 318.453125 300.597656 318.855469 300.105469 C 319.257812 299.613281 319.636719 299.105469 319.988281 298.578125 C 320.339844 298.050781 320.667969 297.507812 320.964844 296.949219 C 321.265625 296.390625 321.535156 295.816406 321.78125 295.230469 C 322.023438 294.644531 322.234375 294.046875 322.421875 293.441406 C 322.605469 292.832031 322.757812 292.21875 322.882812 291.597656 C 323.007812 290.972656 323.097656 290.347656 323.160156 289.714844 C 323.222656 289.085938 323.253906 288.453125 323.253906 287.816406 L 323.253906 268.449219 C 323.253906 267.8125 323.285156 267.179688 323.347656 266.546875 C 323.410156 265.917969 323.503906 265.289062 323.625 264.667969 C 323.75 264.046875 323.90625 263.429688 324.089844 262.824219 C 324.273438 262.21875 324.488281 261.621094 324.730469 261.035156 C 324.972656 260.449219 325.242188 259.875 325.542969 259.316406 C 325.839844 258.757812 326.167969 258.214844 326.519531 257.6875 C 326.871094 257.160156 327.25 256.648438 327.652344 256.160156 C 328.054688 255.667969 328.480469 255.199219 328.929688 254.75 C 329.378906 254.300781 329.847656 253.875 330.339844 253.472656 C 330.828125 253.070312 331.335938 252.695312 331.863281 252.339844 C 332.394531 251.988281 332.9375 251.664062 333.496094 251.363281 C 334.054688 251.066406 334.628906 250.792969 335.214844 250.550781 C 335.800781 250.308594 336.398438 250.09375 337.003906 249.910156 C 337.613281 249.726562 338.226562 249.574219 338.847656 249.449219 C 339.472656 249.324219 340.097656 249.234375 340.730469 249.171875 C 341.363281 249.109375 341.996094 249.078125 342.628906 249.078125 C 343.265625 249.078125 343.898438 249.109375 344.527344 249.171875 C 345.160156 249.234375 345.785156 249.324219 346.410156 249.449219 C 347.03125 249.574219 347.648438 249.726562 348.253906 249.910156 C 348.859375 250.09375 349.457031 250.308594 350.042969 250.550781 C 350.628906 250.792969 351.203125 251.066406 351.761719 251.363281 C 352.324219 251.664062 352.867188 251.988281 353.394531 252.339844 C 353.921875 252.695312 354.429688 253.070312 354.921875 253.472656 C 355.410156 253.875 355.882812 254.300781 356.328125 254.75 C 356.777344 255.199219 357.203125 255.667969 357.605469 256.160156 C 358.007812 256.648438 358.386719 257.160156 358.738281 257.6875 C 359.089844 258.214844 359.417969 258.757812 359.714844 259.316406 C 360.015625 259.875 360.285156 260.449219 360.53125 261.035156 C 360.773438 261.621094 360.984375 262.21875 361.171875 262.824219 C 361.355469 263.429688 361.507812 264.046875 361.632812 264.667969 C 361.757812 265.289062 361.847656 265.917969 361.910156 266.546875 C 361.972656 267.179688 362.003906 267.8125 362.003906 268.449219 L 362.003906 287.816406 C 362.003906 289.71875 361.90625 291.617188 361.71875 293.511719 C 361.53125 295.40625 361.25 297.285156 360.878906 299.148438 C 360.503906 301.015625 360.042969 302.859375 359.488281 304.679688 C 358.933594 306.5 358.292969 308.289062 357.5625 310.046875 C 356.835938 311.804688 356.023438 313.519531 355.125 315.199219 C 354.226562 316.875 353.25 318.507812 352.191406 320.085938 C 351.132812 321.667969 350 323.195312 348.792969 324.667969 C 347.585938 326.136719 346.308594 327.542969 344.964844 328.890625 C 343.617188 330.234375 342.207031 331.511719 340.738281 332.71875 C 339.265625 333.925781 337.742188 335.058594 336.15625 336.117188 C 334.574219 337.171875 332.945312 338.152344 331.269531 339.046875 C 329.589844 339.945312 327.871094 340.757812 326.113281 341.488281 C 324.355469 342.21875 322.566406 342.859375 320.746094 343.410156 C 318.925781 343.964844 317.082031 344.429688 315.214844 344.800781 C 313.347656 345.171875 311.46875 345.453125 309.574219 345.640625 C 307.679688 345.832031 305.78125 345.925781 303.878906 345.925781 Z M 303.878906 345.925781 " fill-opacity="1" fill-rule="nonzero"/></g><path fill="rgb(100%, 100%, 100%)" d="M 265.128906 268.449219 L 110.128906 268.449219 C 109.496094 268.449219 108.863281 268.417969 108.230469 268.355469 C 107.597656 268.292969 106.972656 268.199219 106.347656 268.074219 C 105.726562 267.953125 105.113281 267.796875 104.503906 267.613281 C 103.898438 267.429688 103.300781 267.214844 102.714844 266.972656 C 102.128906 266.730469 101.554688 266.460938 100.996094 266.160156 C 100.4375 265.859375 99.894531 265.535156 99.367188 265.183594 C 98.835938 264.832031 98.328125 264.453125 97.839844 264.050781 C 97.347656 263.648438 96.878906 263.222656 96.429688 262.773438 C 95.980469 262.324219 95.554688 261.855469 95.152344 261.367188 C 94.75 260.875 94.371094 260.367188 94.019531 259.839844 C 93.667969 259.3125 93.339844 258.769531 93.042969 258.207031 C 92.742188 257.648438 92.472656 257.074219 92.230469 256.488281 C 91.988281 255.902344 91.773438 255.308594 91.589844 254.699219 C 91.40625 254.09375 91.25 253.476562 91.125 252.855469 C 91.003906 252.234375 90.910156 251.605469 90.847656 250.976562 C 90.785156 250.34375 90.753906 249.710938 90.753906 249.078125 C 90.753906 248.441406 90.785156 247.808594 90.847656 247.179688 C 90.910156 246.546875 91.003906 245.921875 91.125 245.296875 C 91.25 244.675781 91.40625 244.0625 91.589844 243.453125 C 91.773438 242.847656 91.988281 242.25 92.230469 241.664062 C 92.472656 241.078125 92.742188 240.507812 93.042969 239.945312 C 93.339844 239.386719 93.667969 238.84375 94.019531 238.316406 C 94.371094 237.789062 94.75 237.28125 95.152344 236.789062 C 95.554688 236.296875 95.980469 235.828125 96.429688 235.378906 C 96.878906 234.933594 97.347656 234.507812 97.839844 234.105469 C 98.328125 233.703125 98.835938 233.324219 99.367188 232.972656 C 99.894531 232.621094 100.4375 232.292969 100.996094 231.996094 C 101.554688 231.695312 102.128906 231.425781 102.714844 231.183594 C 103.300781 230.9375 103.898438 230.726562 104.503906 230.542969 C 105.113281 230.355469 105.726562 230.203125 106.347656 230.078125 C 106.972656 229.957031 107.597656 229.863281 108.230469 229.800781 C 108.863281 229.738281 109.496094 229.707031 110.128906 229.707031 L 265.128906 229.707031 C 265.765625 229.707031 266.398438 229.738281 267.027344 229.800781 C 267.660156 229.863281 268.285156 229.957031 268.910156 230.078125 C 269.53125 230.203125 270.144531 230.355469 270.753906 230.542969 C 271.359375 230.726562 271.957031 230.9375 272.542969 231.183594 C 273.128906 231.425781 273.703125 231.695312 274.261719 231.996094 C 274.824219 232.292969 275.367188 232.621094 275.894531 232.972656 C 276.421875 233.324219 276.929688 233.703125 277.421875 234.105469 C 277.910156 234.507812 278.382812 234.933594 278.828125 235.378906 C 279.277344 235.828125 279.703125 236.296875 280.105469 236.789062 C 280.507812 237.28125 280.886719 237.789062 281.238281 238.316406 C 281.589844 238.84375 281.917969 239.386719 282.214844 239.945312 C 282.515625 240.507812 282.785156 241.078125 283.03125 241.664062 C 283.273438 242.25 283.484375 242.847656 283.671875 243.453125 C 283.855469 244.0625 284.007812 244.675781 284.132812 245.296875 C 284.257812 245.921875 284.347656 246.546875 284.410156 247.179688 C 284.472656 247.808594 284.503906 248.441406 284.503906 249.078125 C 284.503906 249.710938 284.472656 250.34375 284.410156 250.976562 C 284.347656 251.605469 284.257812 252.234375 284.132812 252.855469 C 284.007812 253.476562 283.855469 254.09375 283.671875 254.699219 C 283.484375 255.308594 283.273438 255.902344 283.03125 256.488281 C 282.785156 257.074219 282.515625 257.648438 282.214844 258.207031 C 281.917969 258.769531 281.589844 259.3125 281.238281 259.839844 C 280.886719 260.367188 280.507812 260.875 280.105469 261.367188 C 279.703125 261.855469 279.277344 262.324219 278.828125 262.773438 C 278.382812 263.222656 277.910156 263.648438 277.421875 264.050781 C 276.929688 264.453125 276.421875 264.832031 275.894531 265.183594 C 275.367188 265.535156 274.824219 265.859375 274.261719 266.160156 C 273.703125 266.460938 273.128906 266.730469 272.542969 266.972656 C 271.957031 267.214844 271.359375 267.429688 270.753906 267.613281 C 270.144531 267.796875 269.53125 267.953125 268.910156 268.074219 C 268.285156 268.199219 267.660156 268.292969 267.027344 268.355469 C 266.398438 268.417969 265.765625 268.449219 265.128906 268.449219 Z M 265.128906 268.449219 " fill-opacity="1" fill-rule="nonzero"/><path fill="rgb(100%, 100%, 100%)" d="M 270.542969 218.433594 C 269.867188 218.433594 269.179688 218.433594 268.492188 218.328125 L 114.34375 202.132812 C 113.710938 202.070312 113.078125 201.980469 112.453125 201.855469 C 111.828125 201.730469 111.210938 201.574219 110.601562 201.390625 C 109.992188 201.207031 109.390625 200.992188 108.804688 200.746094 C 108.214844 200.5 107.640625 200.230469 107.078125 199.929688 C 106.515625 199.625 105.972656 199.296875 105.441406 198.945312 C 104.914062 198.589844 104.402344 198.207031 103.910156 197.804688 C 103.417969 197.398438 102.945312 196.96875 102.496094 196.519531 C 102.046875 196.066406 101.621094 195.59375 101.21875 195.101562 C 100.816406 194.605469 100.4375 194.09375 100.085938 193.5625 C 99.734375 193.03125 99.410156 192.484375 99.109375 191.921875 C 98.8125 191.359375 98.542969 190.78125 98.300781 190.191406 C 98.058594 189.601562 97.847656 189 97.664062 188.390625 C 97.484375 187.78125 97.332031 187.164062 97.210938 186.535156 C 97.089844 185.910156 97 185.28125 96.941406 184.644531 C 96.882812 184.011719 96.855469 183.375 96.859375 182.738281 C 96.863281 182.101562 96.898438 181.464844 96.964844 180.832031 C 97.03125 180.199219 97.128906 179.570312 97.257812 178.945312 C 97.386719 178.320312 97.542969 177.707031 97.734375 177.097656 C 97.925781 176.488281 98.144531 175.890625 98.390625 175.304688 C 98.640625 174.71875 98.917969 174.144531 99.222656 173.585938 C 99.527344 173.023438 99.859375 172.480469 100.21875 171.957031 C 100.578125 171.429688 100.960938 170.921875 101.367188 170.433594 C 101.777344 169.941406 102.210938 169.476562 102.664062 169.027344 C 103.121094 168.582031 103.59375 168.160156 104.09375 167.761719 C 104.589844 167.363281 105.105469 166.988281 105.636719 166.640625 C 106.171875 166.289062 106.722656 165.96875 107.285156 165.675781 C 107.851562 165.382812 108.429688 165.117188 109.023438 164.878906 C 109.613281 164.640625 110.214844 164.433594 110.828125 164.253906 C 111.441406 164.078125 112.058594 163.929688 112.6875 163.8125 C 113.3125 163.699219 113.941406 163.613281 114.578125 163.558594 C 115.214844 163.503906 115.847656 163.480469 116.488281 163.488281 C 117.125 163.496094 117.757812 163.535156 118.394531 163.605469 L 272.539062 179.800781 C 273.148438 179.863281 273.753906 179.957031 274.355469 180.078125 C 274.957031 180.199219 275.550781 180.351562 276.136719 180.527344 C 276.722656 180.707031 277.300781 180.910156 277.867188 181.144531 C 278.433594 181.378906 278.988281 181.636719 279.53125 181.921875 C 280.074219 182.207031 280.601562 182.515625 281.113281 182.851562 C 281.628906 183.1875 282.125 183.546875 282.601562 183.929688 C 283.082031 184.3125 283.542969 184.714844 283.980469 185.140625 C 284.421875 185.566406 284.84375 186.015625 285.242188 186.480469 C 285.640625 186.945312 286.015625 187.429688 286.367188 187.929688 C 286.71875 188.433594 287.046875 188.949219 287.351562 189.480469 C 287.652344 190.015625 287.929688 190.5625 288.183594 191.121094 C 288.433594 191.679688 288.65625 192.246094 288.855469 192.828125 C 289.050781 193.410156 289.222656 193.996094 289.363281 194.59375 C 289.503906 195.1875 289.617188 195.789062 289.703125 196.398438 C 289.785156 197.003906 289.839844 197.613281 289.867188 198.226562 C 289.894531 198.839844 289.890625 199.449219 289.859375 200.0625 C 289.828125 200.675781 289.769531 201.285156 289.679688 201.890625 C 289.589844 202.496094 289.472656 203.097656 289.324219 203.691406 C 289.179688 204.289062 289.003906 204.875 288.800781 205.453125 C 288.601562 206.03125 288.371094 206.597656 288.113281 207.15625 C 287.859375 207.710938 287.578125 208.257812 287.269531 208.785156 C 286.960938 209.316406 286.628906 209.832031 286.273438 210.328125 C 285.917969 210.828125 285.535156 211.308594 285.136719 211.769531 C 284.734375 212.234375 284.308594 212.675781 283.867188 213.097656 C 283.421875 213.519531 282.957031 213.921875 282.476562 214.300781 C 281.992188 214.675781 281.496094 215.03125 280.980469 215.363281 C 280.464844 215.695312 279.933594 216 279.386719 216.28125 C 278.84375 216.5625 278.285156 216.816406 277.71875 217.042969 C 277.148438 217.273438 276.570312 217.472656 275.980469 217.644531 C 275.394531 217.820312 274.800781 217.964844 274.195312 218.082031 C 273.59375 218.195312 272.988281 218.285156 272.378906 218.34375 C 271.769531 218.402344 271.15625 218.433594 270.542969 218.433594 Z M 270.542969 218.433594 " fill-opacity="1" fill-rule="nonzero"/><path fill="rgb(100%, 100%, 100%)" d="M 277.027344 168.34375 C 275.660156 168.34375 274.3125 168.203125 272.976562 167.917969 L 121.347656 135.683594 C 120.734375 135.546875 120.132812 135.375 119.535156 135.175781 C 118.941406 134.976562 118.355469 134.75 117.78125 134.492188 C 117.207031 134.238281 116.648438 133.953125 116.101562 133.644531 C 115.554688 133.332031 115.027344 132.996094 114.511719 132.636719 C 114 132.273438 113.503906 131.886719 113.027344 131.476562 C 112.554688 131.066406 112.097656 130.636719 111.664062 130.183594 C 111.230469 129.726562 110.820312 129.253906 110.433594 128.757812 C 110.046875 128.265625 109.683594 127.753906 109.34375 127.222656 C 109.007812 126.695312 108.695312 126.148438 108.410156 125.589844 C 108.125 125.03125 107.867188 124.457031 107.640625 123.875 C 107.410156 123.289062 107.210938 122.695312 107.039062 122.089844 C 106.867188 121.488281 106.726562 120.875 106.613281 120.257812 C 106.5 119.640625 106.417969 119.019531 106.367188 118.390625 C 106.316406 117.765625 106.296875 117.140625 106.304688 116.511719 C 106.316406 115.882812 106.355469 115.257812 106.425781 114.632812 C 106.496094 114.007812 106.597656 113.390625 106.726562 112.777344 C 106.859375 112.160156 107.019531 111.554688 107.207031 110.957031 C 107.398438 110.359375 107.617188 109.769531 107.863281 109.191406 C 108.109375 108.613281 108.382812 108.050781 108.683594 107.5 C 108.988281 106.949219 109.316406 106.414062 109.667969 105.894531 C 110.023438 105.375 110.402344 104.875 110.804688 104.394531 C 111.207031 103.914062 111.628906 103.449219 112.078125 103.011719 C 112.523438 102.570312 112.992188 102.152344 113.480469 101.753906 C 113.96875 101.359375 114.476562 100.988281 115 100.644531 C 115.523438 100.296875 116.0625 99.976562 116.617188 99.683594 C 117.171875 99.390625 117.742188 99.125 118.324219 98.886719 C 118.902344 98.648438 119.496094 98.4375 120.097656 98.257812 C 120.699219 98.074219 121.308594 97.925781 121.921875 97.804688 C 122.539062 97.679688 123.160156 97.589844 123.785156 97.527344 C 124.410156 97.46875 125.035156 97.4375 125.664062 97.4375 C 126.292969 97.433594 126.921875 97.464844 127.546875 97.527344 C 128.171875 97.585938 128.792969 97.675781 129.40625 97.796875 L 281.035156 130.03125 C 282.195312 130.277344 283.324219 130.628906 284.417969 131.082031 C 285.515625 131.535156 286.558594 132.085938 287.554688 132.734375 C 288.546875 133.378906 289.476562 134.109375 290.335938 134.925781 C 291.195312 135.742188 291.972656 136.628906 292.671875 137.589844 C 293.367188 138.550781 293.972656 139.5625 294.480469 140.632812 C 294.992188 141.703125 295.402344 142.8125 295.707031 143.957031 C 296.015625 145.101562 296.214844 146.265625 296.308594 147.449219 C 296.402344 148.628906 296.386719 149.808594 296.265625 150.988281 C 296.140625 152.167969 295.910156 153.328125 295.574219 154.464844 C 295.238281 155.601562 294.800781 156.699219 294.265625 157.753906 C 293.726562 158.8125 293.097656 159.808594 292.375 160.75 C 291.65625 161.691406 290.855469 162.5625 289.972656 163.355469 C 289.09375 164.148438 288.148438 164.855469 287.136719 165.476562 C 286.125 166.097656 285.070312 166.621094 283.960938 167.046875 C 282.855469 167.472656 281.71875 167.796875 280.554688 168.015625 C 279.386719 168.230469 278.210938 168.339844 277.027344 168.34375 Z M 277.027344 168.34375 " fill-opacity="1" fill-rule="nonzero"/><path fill="rgb(100%, 100%, 100%)" d="M 298.152344 118.070312 C 296.105469 118.058594 294.105469 117.734375 292.15625 117.101562 L 144.753906 69.238281 C 144.175781 69.019531 143.609375 68.777344 143.054688 68.503906 C 142.503906 68.234375 141.964844 67.9375 141.4375 67.617188 C 140.914062 67.292969 140.402344 66.949219 139.910156 66.578125 C 139.417969 66.207031 138.945312 65.8125 138.492188 65.398438 C 138.035156 64.980469 137.601562 64.542969 137.1875 64.085938 C 136.773438 63.628906 136.386719 63.152344 136.015625 62.660156 C 135.648438 62.164062 135.304688 61.652344 134.988281 61.125 C 134.667969 60.597656 134.375 60.058594 134.109375 59.503906 C 133.839844 58.949219 133.601562 58.378906 133.386719 57.800781 C 133.175781 57.222656 132.988281 56.636719 132.832031 56.042969 C 132.675781 55.445312 132.546875 54.84375 132.445312 54.234375 C 132.347656 53.628906 132.277344 53.015625 132.234375 52.402344 C 132.195312 51.785156 132.183594 51.171875 132.199219 50.554688 C 132.21875 49.9375 132.265625 49.324219 132.339844 48.714844 C 132.417969 48.101562 132.523438 47.496094 132.65625 46.894531 C 132.789062 46.292969 132.953125 45.699219 133.140625 45.113281 C 133.332031 44.527344 133.550781 43.953125 133.796875 43.386719 C 134.042969 42.820312 134.3125 42.269531 134.613281 41.730469 C 134.910156 41.191406 135.234375 40.667969 135.582031 40.160156 C 135.929688 39.648438 136.300781 39.160156 136.699219 38.6875 C 137.09375 38.214844 137.511719 37.761719 137.949219 37.328125 C 138.386719 36.894531 138.84375 36.484375 139.324219 36.09375 C 139.800781 35.703125 140.296875 35.339844 140.808594 34.996094 C 141.320312 34.652344 141.847656 34.335938 142.390625 34.046875 C 142.933594 33.753906 143.488281 33.488281 144.058594 33.25 C 144.625 33.011719 145.203125 32.796875 145.792969 32.613281 C 146.378906 32.429688 146.976562 32.277344 147.578125 32.148438 C 148.183594 32.023438 148.789062 31.925781 149.402344 31.855469 C 150.015625 31.785156 150.628906 31.746094 151.246094 31.738281 C 151.863281 31.726562 152.476562 31.746094 153.09375 31.792969 C 153.707031 31.84375 154.316406 31.921875 154.925781 32.027344 C 155.53125 32.132812 156.132812 32.269531 156.726562 32.433594 L 304.132812 80.308594 C 305.214844 80.664062 306.261719 81.113281 307.265625 81.652344 C 308.269531 82.191406 309.21875 82.816406 310.113281 83.527344 C 311.007812 84.234375 311.835938 85.015625 312.589844 85.871094 C 313.347656 86.726562 314.023438 87.640625 314.617188 88.613281 C 315.210938 89.589844 315.71875 90.605469 316.132812 91.667969 C 316.546875 92.734375 316.867188 93.824219 317.085938 94.941406 C 317.308594 96.0625 317.429688 97.191406 317.453125 98.332031 C 317.476562 99.472656 317.398438 100.609375 317.21875 101.734375 C 317.039062 102.863281 316.765625 103.964844 316.390625 105.042969 C 316.019531 106.121094 315.554688 107.160156 314.996094 108.15625 C 314.441406 109.152344 313.800781 110.089844 313.078125 110.972656 C 312.355469 111.855469 311.558594 112.671875 310.695312 113.414062 C 309.828125 114.15625 308.902344 114.816406 307.917969 115.394531 C 306.9375 115.976562 305.910156 116.464844 304.839844 116.863281 C 303.769531 117.261719 302.671875 117.5625 301.550781 117.765625 C 300.425781 117.96875 299.296875 118.074219 298.152344 118.078125 Z M 298.152344 118.070312 " fill-opacity="1" fill-rule="nonzero"/></svg>