<?xml version="1.0" encoding="UTF-8"?><svg xmlns="http://www.w3.org/2000/svg" xmlns:xlink="http://www.w3.org/1999/xlink" contentScriptType="text/ecmascript" width="375" zoomAndPan="magnify" contentStyleType="text/css" viewBox="0 0 375 374.999991" height="374.999991" preserveAspectRatio="xMidYMid meet" version="1.0"><defs><clipPath id="clip-0"><path d="M 13.253906 13.253906 L 362.003906 13.253906 L 362.003906 362.003906 L 13.253906 362.003906 Z M 13.253906 13.253906 " clip-rule="nonzero"/></clipPath></defs><g clip-path="url(#clip-0)"><path fill="rgb(100%, 100%, 100%)" d="M 362.003906 187.628906 C 362.003906 283.972656 283.972656 362.003906 187.628906 362.003906 C 91.289062 362.003906 13.253906 283.972656 13.253906 187.628906 C 13.253906 91.289062 91.289062 13.253906 187.628906 13.253906 C 283.972656 13.253906 362.003906 91.289062 362.003906 187.628906 Z M 155.71875 279.613281 C 233.054688 279.613281 275.339844 215.53125 275.339844 159.992188 C 275.339844 158.160156 275.339844 156.328125 275.253906 154.585938 C 283.449219 148.65625 290.597656 141.246094 296.265625 132.789062 C 288.765625 136.101562 280.660156 138.367188 272.113281 139.414062 C 280.832031 134.183594 287.460938 125.988281 290.597656 116.136719 C 282.488281 120.929688 273.507812 124.417969 263.917969 126.335938 C 256.246094 118.140625 245.347656 113.085938 233.226562 113.085938 C 210.035156 113.085938 191.203125 131.917969 191.203125 155.109375 C 191.203125 158.421875 191.554688 161.648438 192.335938 164.699219 C 157.375 162.957031 126.421875 146.214844 105.671875 120.757812 C 102.097656 126.945312 100.007812 134.183594 100.007812 141.855469 C 100.007812 156.417969 107.417969 169.320312 118.75 176.816406 C 111.863281 176.644531 105.410156 174.726562 99.746094 171.585938 C 99.746094 171.761719 99.746094 171.9375 99.746094 172.109375 C 99.746094 192.511719 114.21875 209.425781 133.484375 213.351562 C 130 214.308594 126.25 214.832031 122.414062 214.832031 C 119.710938 214.832031 117.09375 214.570312 114.480469 214.046875 C 119.796875 230.789062 135.316406 242.90625 153.714844 243.253906 C 139.328125 254.503906 121.191406 261.214844 101.488281 261.214844 C 98.085938 261.214844 94.773438 261.042969 91.460938 260.605469 C 109.859375 272.636719 132.003906 279.613281 155.71875 279.613281 " fill-opacity="1" fill-rule="nonzero"/></g></svg>