<?xml version="1.0" encoding="UTF-8"?><svg xmlns="http://www.w3.org/2000/svg" xmlns:xlink="http://www.w3.org/1999/xlink" contentScriptType="text/ecmascript" width="375" zoomAndPan="magnify" contentStyleType="text/css" viewBox="0 0 375 374.999991" height="374.999991" preserveAspectRatio="xMidYMid meet" version="1.0"><defs><clipPath id="clip-0"><path d="M 16 21.308594 L 349 21.308594 L 349 353.558594 L 16 353.558594 Z M 16 21.308594 " clip-rule="nonzero"/></clipPath><clipPath id="clip-1"><path d="M 289 248 L 358.613281 248 L 358.613281 318 L 289 318 Z M 289 248 " clip-rule="nonzero"/></clipPath></defs><path fill="rgb(100%, 100%, 100%)" d="M 32.015625 222.558594 L 332.515625 222.558594 C 334.269531 212.324219 337.136719 194.210938 337.136719 187.433594 C 337.136719 180.652344 334.269531 162.542969 332.515625 152.3125 L 32.015625 152.3125 L 27.648438 187.433594 Z M 341.316406 233.074219 L 22.730469 233.074219 L 17.058594 187.433594 L 22.730469 141.792969 L 341.316406 141.792969 L 342.097656 146.117188 C 342.324219 147.375 347.644531 176.984375 347.644531 187.433594 C 347.644531 197.882812 342.324219 227.492188 342.097656 228.75 L 341.316406 233.074219 " fill-opacity="1" fill-rule="nonzero"/><path fill="rgb(100%, 100%, 100%)" d="M 151.683594 167.148438 L 139.933594 211.476562 L 128.511719 211.476562 L 122.3125 187.023438 L 116.457031 211.476562 L 104.550781 211.476562 L 92.78125 167.148438 L 105.574219 167.148438 L 111.769531 192.660156 L 117.816406 167.148438 L 128.492188 167.148438 L 135.066406 192.710938 L 141.277344 167.148438 L 151.683594 167.148438 " fill-opacity="1" fill-rule="nonzero"/><path fill="rgb(100%, 100%, 100%)" d="M 211.496094 167.148438 L 199.746094 211.476562 L 188.320312 211.476562 L 182.125 187.023438 L 176.273438 211.476562 L 164.363281 211.476562 L 152.589844 167.148438 L 165.386719 167.148438 L 171.585938 192.660156 L 177.628906 167.148438 L 188.304688 167.148438 L 194.882812 192.710938 L 201.085938 167.148438 L 211.496094 167.148438 " fill-opacity="1" fill-rule="nonzero"/><path fill="rgb(100%, 100%, 100%)" d="M 271.308594 167.148438 L 259.558594 211.476562 L 248.132812 211.476562 L 241.9375 187.023438 L 236.085938 211.476562 L 224.171875 211.476562 L 212.402344 167.148438 L 225.199219 167.148438 L 231.394531 192.660156 L 237.441406 167.148438 L 248.117188 167.148438 L 254.691406 192.710938 L 260.898438 167.148438 L 271.308594 167.148438 " fill-opacity="1" fill-rule="nonzero"/><path fill="rgb(100%, 100%, 100%)" d="M 67.945312 272.597656 C 74.789062 268.914062 89.769531 261.726562 111.644531 256.023438 C 109.410156 247.023438 107.652344 237.570312 106.34375 227.816406 L 45.503906 227.816406 C 50.332031 244.148438 57.992188 259.273438 67.945312 272.597656 " fill-opacity="1" fill-rule="nonzero"/><path fill="rgb(100%, 100%, 100%)" d="M 186.464844 115.78125 L 186.464844 147.050781 L 243.191406 147.050781 C 241.46875 134.402344 238.992188 122.65625 235.878906 112.019531 C 218.042969 114.234375 201.515625 115.378906 186.464844 115.78125 " fill-opacity="1" fill-rule="nonzero"/><path fill="rgb(100%, 100%, 100%)" d="M 173.691406 115.953125 C 155.898438 115.953125 140.5 114.9375 127.808594 113.566406 C 127.265625 113.507812 126.738281 113.445312 126.199219 113.386719 C 123.269531 123.660156 120.925781 134.9375 119.277344 147.050781 L 176.015625 147.050781 L 176.015625 115.945312 C 175.238281 115.949219 174.460938 115.953125 173.691406 115.953125 " fill-opacity="1" fill-rule="nonzero"/><path fill="rgb(100%, 100%, 100%)" d="M 68.417969 101.652344 C 58.234375 115.125 50.410156 130.46875 45.503906 147.050781 L 106.339844 147.050781 C 107.992188 134.699219 110.394531 122.84375 113.523438 111.753906 C 90.425781 108.375 75.09375 103.871094 68.417969 101.652344 " fill-opacity="1" fill-rule="nonzero"/><path fill="rgb(100%, 100%, 100%)" d="M 124.007812 253.148438 C 125.851562 252.769531 127.722656 252.398438 129.644531 252.046875 C 144.765625 249.289062 160.28125 247.886719 176.015625 247.851562 L 176.015625 227.816406 L 119.28125 227.816406 C 120.496094 236.734375 122.078125 245.210938 124.007812 253.148438 " fill-opacity="1" fill-rule="nonzero"/><path fill="rgb(100%, 100%, 100%)" d="M 124.941406 293.78125 C 120.867188 285.324219 117.34375 276.042969 114.394531 266.128906 C 95.296875 271.121094 81.644531 277.320312 74.65625 280.90625 C 93.453125 302.5 118.628906 318.382812 147.214844 325.601562 C 138.914062 317.847656 131.375 307.15625 124.941406 293.78125 " fill-opacity="1" fill-rule="nonzero"/><path fill="rgb(100%, 100%, 100%)" d="M 237.539062 293.78125 C 230.953125 307.46875 223.214844 318.34375 214.683594 326.136719 C 243.917969 319.25 269.703125 303.320312 288.925781 281.472656 C 274.605469 275.628906 260.804688 271.121094 247.617188 267.699219 C 244.769531 277.023438 241.398438 285.769531 237.539062 293.78125 " fill-opacity="1" fill-rule="nonzero"/><path fill="rgb(100%, 100%, 100%)" d="M 126.722656 263.269531 C 137.960938 301.378906 157.027344 325.578125 176.015625 329.386719 L 176.015625 258.371094 C 159.132812 258.390625 144.347656 260.023438 132.046875 262.242188 C 130.234375 262.566406 128.464844 262.914062 126.722656 263.269531 " fill-opacity="1" fill-rule="nonzero"/><path fill="rgb(100%, 100%, 100%)" d="M 186.464844 258.5625 L 186.464844 329.386719 C 205.203125 325.632812 224.015625 302.015625 235.308594 264.777344 C 217.746094 261 201.390625 259.132812 186.464844 258.5625 " fill-opacity="1" fill-rule="nonzero"/><path fill="rgb(100%, 100%, 100%)" d="M 186.464844 45.484375 L 186.464844 105.3125 C 200.566406 104.929688 215.992188 103.886719 232.625 101.882812 C 221.175781 69.394531 203.785156 48.953125 186.464844 45.484375 " fill-opacity="1" fill-rule="nonzero"/><path fill="rgb(100%, 100%, 100%)" d="M 124.941406 81.085938 C 131.375 67.710938 138.914062 57.019531 147.214844 49.265625 C 119.089844 56.367188 94.269531 71.867188 75.574219 92.925781 C 83.339844 95.261719 97.296875 98.875 116.640625 101.628906 C 119.089844 94.367188 121.855469 87.488281 124.941406 81.085938 " fill-opacity="1" fill-rule="nonzero"/><path fill="rgb(100%, 100%, 100%)" d="M 129.417969 103.222656 C 142.226562 104.589844 157.878906 105.574219 176.015625 105.484375 L 176.015625 45.484375 C 158.457031 49 140.835938 69.957031 129.394531 103.21875 C 129.402344 103.222656 129.410156 103.222656 129.417969 103.222656 " fill-opacity="1" fill-rule="nonzero"/><path fill="rgb(100%, 100%, 100%)" d="M 186.464844 248.03125 C 192.3125 248.242188 198.183594 248.628906 204.070312 249.210938 C 215.363281 250.328125 226.722656 252.148438 238.109375 254.640625 C 240.203125 246.269531 241.910156 237.292969 243.199219 227.816406 L 186.464844 227.816406 L 186.464844 248.03125 " fill-opacity="1" fill-rule="nonzero"/><path fill="rgb(100%, 100%, 100%)" d="M 248.550781 110.296875 C 251.878906 121.800781 254.410156 134.160156 256.132812 147.050781 L 318.578125 147.050781 C 313.632812 130.332031 305.71875 114.875 295.417969 101.324219 C 279.019531 105.171875 263.371094 108.105469 248.550781 110.296875 " fill-opacity="1" fill-rule="nonzero"/><path fill="rgb(100%, 100%, 100%)" d="M 237.539062 81.085938 C 240.421875 87.066406 243.023438 93.460938 245.347656 100.199219 C 258.855469 98.242188 273.082031 95.652344 287.957031 92.304688 C 268.84375 71.015625 243.433594 55.5 214.683594 48.730469 C 223.214844 56.523438 230.953125 67.402344 237.539062 81.085938 " fill-opacity="1" fill-rule="nonzero"/><path fill="rgb(100%, 100%, 100%)" d="M 250.445312 257.597656 C 262.882812 260.847656 275.339844 264.921875 287.761719 269.773438 L 274.289062 233.480469 L 311.257812 247.222656 C 314.152344 240.984375 316.601562 234.5 318.582031 227.816406 L 256.144531 227.816406 C 254.761719 238.144531 252.859375 248.125 250.445312 257.597656 " fill-opacity="1" fill-rule="nonzero"/><g clip-path="url(#clip-0)"><path fill="rgb(100%, 100%, 100%)" d="M 182.042969 21.308594 C 90.5 21.308594 16.023438 95.832031 16.023438 187.433594 C 16.023438 279.035156 90.5 353.558594 182.042969 353.558594 C 228.335938 353.558594 270.257812 334.492188 300.398438 303.808594 L 295.511719 290.640625 C 267.425781 321.523438 226.960938 340.941406 182.042969 340.941406 C 111.421875 340.941406 51.824219 292.925781 34.058594 227.816406 C 30.546875 214.941406 28.632812 201.410156 28.632812 187.433594 C 28.632812 173.457031 30.546875 159.925781 34.058594 147.050781 C 51.824219 81.941406 111.421875 33.925781 182.042969 33.925781 C 252.667969 33.925781 312.261719 81.941406 330.027344 147.050781 C 333.542969 159.925781 335.453125 173.457031 335.453125 187.433594 C 335.453125 201.410156 333.542969 214.941406 330.027344 227.816406 C 327.835938 235.847656 325.003906 243.613281 321.59375 251.066406 L 333.484375 255.484375 C 342.847656 234.707031 348.0625 211.667969 348.0625 187.433594 C 348.0625 95.832031 273.585938 21.308594 182.042969 21.308594 " fill-opacity="1" fill-rule="nonzero"/></g><g clip-path="url(#clip-1)"><path fill="rgb(100%, 100%, 100%)" d="M 358.613281 309.292969 L 332.902344 283.566406 L 353.121094 272.117188 L 289.125 248.328125 L 312.898438 312.363281 L 324.34375 292.132812 L 350.050781 317.859375 L 358.613281 309.292969 " fill-opacity="1" fill-rule="nonzero"/></g></svg>